<svg xmlns="http://www.w3.org/2000/svg" viewBox="0 0 280 140" aria-labelledby="logo-title" role="img">
  <title id="logo-title">remiscan</title>
  <defs>
    <mask id="remiscan-logo-mask">
      <rect x="0" y="0" width="100%" height="100%" fill="black"/>
      <!-- 
        remi
        viewBox: 0 0 193.5 74.9
        X: .5 * (280 - 193.5) - 35 = 43.25 - 35 = 8.25
        Y: .5 * (140 - 74.9) - 24 = 32.55 - 24 = 8.55
        then manually adjusted
      -->
      <g transform="translate(9 2.55)" fill="white" stroke="black" stroke-width="12" stroke-linecap="round" stroke-linejoin="round" paint-order="stroke fill">
        <path d="M 106.65 74.15 L 94.3 74.15 L 94.3 22.85 L 101.85 22.85 A 4.919 4.919 0 0 1 102.035 22.853 Q 104.185 22.934 104.936 24.921 A 4.742 4.742 0 0 1 105 25.1 L 105.8 28.9 A 31.016 31.016 0 0 1 106.139 28.529 Q 107.334 27.244 108.625 26.15 A 18.675 18.675 0 0 1 109.185 25.694 Q 109.972 25.077 110.814 24.555 A 17.931 17.931 0 0 1 111.775 24 A 16.255 16.255 0 0 1 112.52 23.624 Q 113.855 22.993 115.34 22.585 A 18.669 18.669 0 0 1 115.375 22.575 A 13.37 13.37 0 0 1 115.739 22.481 Q 117.385 22.082 119.295 22.052 A 19.828 19.828 0 0 1 119.6 22.05 A 17.626 17.626 0 0 1 119.901 22.053 Q 124.462 22.131 127.463 24.582 A 10.655 10.655 0 0 1 127.575 24.675 A 14.261 14.261 0 0 1 128.867 25.906 Q 131.039 28.252 132.25 31.65 A 18.349 18.349 0 0 1 132.441 31.256 Q 133.591 28.957 135.25 27.275 A 17.943 17.943 0 0 1 135.591 26.939 Q 137.221 25.371 139.129 24.338 A 15.659 15.659 0 0 1 139.2 24.3 A 17.976 17.976 0 0 1 141.634 23.222 Q 142.391 22.951 143.178 22.746 A 18.959 18.959 0 0 1 143.775 22.6 Q 145.338 22.246 146.911 22.119 A 21.769 21.769 0 0 1 148.65 22.05 A 27.357 27.357 0 0 1 149.046 22.053 Q 152.786 22.107 155.774 23.189 A 16.336 16.336 0 0 1 156.2 23.35 Q 159.5 24.65 161.75 27.15 A 14.842 14.842 0 0 1 162.296 27.792 Q 164.147 30.1 165.175 33.25 Q 166.35 36.85 166.35 41.5 L 166.35 74.15 L 154 74.15 L 154 41.5 A 21.822 21.822 0 0 0 153.998 41.196 Q 153.933 36.523 151.85 34.125 Q 149.711 31.663 145.593 31.65 A 13.816 13.816 0 0 0 145.55 31.65 A 10.888 10.888 0 0 0 145.196 31.656 Q 143.824 31.7 142.599 32.093 A 8.718 8.718 0 0 0 142.025 32.3 A 8.835 8.835 0 0 0 141.625 32.471 Q 140.283 33.087 139.231 34.119 A 8.691 8.691 0 0 0 139.175 34.175 A 7.47 7.47 0 0 0 138.805 34.573 Q 137.926 35.59 137.358 36.976 A 10.742 10.742 0 0 0 137.25 37.25 A 9.395 9.395 0 0 0 137.125 37.602 Q 136.55 39.325 136.55 41.5 L 136.55 74.15 L 124.15 74.15 L 124.15 41.5 A 24.928 24.928 0 0 0 124.148 41.186 Q 124.086 36.282 122.079 34.004 A 5.679 5.679 0 0 0 122.075 34 Q 120 31.65 115.95 31.65 A 10.428 10.428 0 0 0 115.456 31.662 Q 113.175 31.77 111.14 32.883 A 10.836 10.836 0 0 0 110.975 32.975 Q 108.698 34.272 106.734 36.505 A 20.882 20.882 0 0 0 106.65 36.6 L 106.65 74.15 Z M 81.4 50.05 L 49.7 50.05 Q 50.237 57.769 53.782 61.478 A 10.591 10.591 0 0 0 53.95 61.65 Q 57.558 65.258 63.449 65.348 A 19.821 19.821 0 0 0 63.75 65.35 A 25.139 25.139 0 0 0 64.076 65.348 Q 66.842 65.312 68.885 64.663 A 11.416 11.416 0 0 0 68.925 64.65 A 32.889 32.889 0 0 0 69.195 64.562 Q 71.15 63.914 72.646 63.141 A 17.469 17.469 0 0 0 72.725 63.1 A 125.459 125.459 0 0 0 72.927 62.994 Q 74.334 62.255 75.432 61.631 A 59.88 59.88 0 0 0 75.575 61.55 Q 76.8 60.85 77.95 60.85 A 3.58 3.58 0 0 1 78.123 60.854 Q 78.764 60.885 79.25 61.15 Q 79.772 61.435 80.159 61.945 A 3.404 3.404 0 0 1 80.2 62 L 83.8 66.5 A 22.293 22.293 0 0 1 83.411 66.943 Q 81.511 69.052 79.2 70.525 A 27.07 27.07 0 0 1 78.559 70.921 Q 76.303 72.272 73.875 73.125 Q 72.188 73.718 70.465 74.098 A 28.852 28.852 0 0 1 68.225 74.5 A 44.795 44.795 0 0 1 67.687 74.571 Q 65.097 74.9 62.65 74.9 A 31.86 31.86 0 0 1 62.026 74.894 Q 57.03 74.796 52.7 73.125 A 23.868 23.868 0 0 1 52.13 72.896 Q 47.888 71.133 44.7 67.875 Q 41.429 64.532 39.5 59.662 A 30.638 30.638 0 0 1 39.35 59.275 A 25.369 25.369 0 0 1 39.143 58.71 Q 37.424 53.849 37.4 47.575 A 46.532 46.532 0 0 1 37.4 47.4 Q 37.4 42.629 38.804 38.374 A 26.824 26.824 0 0 1 39.1 37.525 A 26.692 26.692 0 0 1 39.318 36.952 Q 40.998 32.686 43.975 29.475 Q 47.15 26.05 51.725 24.05 Q 56.117 22.13 61.591 22.053 A 32.661 32.661 0 0 1 62.05 22.05 A 29.931 29.931 0 0 1 62.616 22.055 Q 66.86 22.136 70.5 23.425 A 22.13 22.13 0 0 1 70.975 23.6 Q 74.601 24.979 77.336 27.486 A 19.33 19.33 0 0 1 78 28.125 A 18.822 18.822 0 0 1 78.89 29.088 Q 81.208 31.776 82.6 35.425 A 21.916 21.916 0 0 1 82.8 35.97 Q 84.227 40.03 84.25 45.132 A 37.146 37.146 0 0 1 84.25 45.3 A 30.365 30.365 0 0 1 84.25 45.473 Q 84.242 46.758 84.125 47.625 Q 84.008 48.493 83.714 49.009 A 2.076 2.076 0 0 1 83.675 49.075 Q 83.393 49.53 82.942 49.76 A 1.891 1.891 0 0 1 82.8 49.825 A 2.316 2.316 0 0 1 82.676 49.872 Q 82.189 50.039 81.493 50.049 A 6.238 6.238 0 0 1 81.4 50.05 Z M 12.35 74.15 L 0 74.15 L 0 22.85 L 7.25 22.85 A 9.883 9.883 0 0 1 7.426 22.852 Q 9.185 22.883 9.9 23.55 A 2.041 2.041 0 0 1 10.014 23.665 Q 10.67 24.383 10.9 25.95 L 11.65 32.15 A 32.672 32.672 0 0 1 11.823 31.855 Q 14.516 27.314 18.1 24.65 A 15.245 15.245 0 0 1 18.507 24.357 Q 21.975 21.953 26.212 21.901 A 15.299 15.299 0 0 1 26.4 21.9 Q 30.2 21.9 32.7 23.65 L 31.1 32.9 Q 30.969 33.684 30.573 34.07 A 1.263 1.263 0 0 1 30.45 34.175 Q 29.964 34.54 29.147 34.55 A 3.788 3.788 0 0 1 29.1 34.55 Q 28.386 34.55 27.172 34.233 A 17.98 17.98 0 0 1 27.05 34.2 Q 25.75 33.85 23.6 33.85 A 13.676 13.676 0 0 0 23.241 33.855 Q 19.784 33.945 17.238 35.796 A 10.184 10.184 0 0 0 17 35.975 A 11.775 11.775 0 0 0 16.66 36.248 Q 14.221 38.282 12.477 41.931 A 25.097 25.097 0 0 0 12.35 42.2 L 12.35 74.15 Z M 179.3 22.85 L 191.65 22.85 L 191.65 74.15 L 179.3 74.15 L 179.3 22.85 Z M 49.95 42.6 L 73.15 42.6 A 17.444 17.444 0 0 0 73.144 42.152 Q 73.093 40.169 72.589 38.378 A 14.12 14.12 0 0 0 72.5 38.075 Q 72.04 36.57 71.228 35.329 A 9.994 9.994 0 0 0 70.5 34.35 A 8.995 8.995 0 0 0 69.414 33.266 Q 68.397 32.41 67.1 31.825 A 9.098 9.098 0 0 0 66.709 31.66 Q 64.792 30.9 62.3 30.9 A 18.737 18.737 0 0 0 61.965 30.903 Q 56.955 30.993 54.025 33.78 A 9.7 9.7 0 0 0 53.85 33.95 A 11.182 11.182 0 0 0 53.342 34.493 Q 50.806 37.391 49.999 42.292 A 24.69 24.69 0 0 0 49.95 42.6 Z"/>
        <path id="eye" transform-origin="194.6 10.78" d="M 193.5 7.9 Q 193.5 9.5 192.85 10.9 A 8.783 8.783 0 0 1 192.659 11.287 Q 192.397 11.784 192.078 12.235 A 8.128 8.128 0 0 1 191.125 13.35 A 7.967 7.967 0 0 1 190.19 14.133 Q 189.618 14.542 188.964 14.859 A 9.067 9.067 0 0 1 188.601 15.025 Q 187.291 15.589 185.818 15.644 A 8.564 8.564 0 0 1 185.5 15.65 Q 184.027 15.65 182.703 15.12 A 7.487 7.487 0 0 1 182.475 15.025 Q 181.638 14.658 180.93 14.144 A 7.766 7.766 0 0 1 180 13.35 Q 178.95 12.3 178.325 10.9 Q 177.7 9.5 177.7 7.9 A 8.535 8.535 0 0 1 177.709 7.516 Q 177.773 6.08 178.325 4.8 A 8.895 8.895 0 0 1 178.477 4.466 Q 178.895 3.596 179.477 2.88 A 7.559 7.559 0 0 1 180 2.3 A 7.769 7.769 0 0 1 180.991 1.463 Q 181.545 1.068 182.178 0.762 A 8.818 8.818 0 0 1 182.475 0.625 Q 183.9 0 185.5 0 A 8.535 8.535 0 0 1 185.884 0.009 Q 187.32 0.073 188.6 0.625 Q 189.899 1.185 190.897 2.086 A 7.96 7.96 0 0 1 191.125 2.3 A 7.746 7.746 0 0 1 191.871 3.144 Q 192.444 3.894 192.85 4.8 Q 193.469 6.18 193.498 7.741 A 8.306 8.306 0 0 1 193.5 7.9 Z"/>
      </g>
      <!--
        scan
        viewBox: 0 0 192.95 53.05
        X: .5 * (280 - 192.95) + 35 = 43.525 + 35 = 78.525
        Y: .5 * (140 - 53.05) + 24 = 43.475 + 24 = 67.475
        then manually adjusted
      -->
      <g transform="translate(77 72.5)" fill="white" stroke="black" stroke-width="12" stroke-linecap="round" stroke-linejoin="round" paint-order="stroke fill" >
        <path d="M 160.6 52.25 L 148.25 52.25 L 148.25 0.95 L 155.8 0.95 A 4.919 4.919 0 0 1 155.985 0.953 Q 158.135 1.034 158.886 3.021 A 4.742 4.742 0 0 1 158.95 3.2 L 159.8 7.25 Q 161.232 5.771 162.814 4.549 A 27.115 27.115 0 0 1 163.075 4.35 Q 164.8 3.05 166.725 2.1 A 17.672 17.672 0 0 1 167.457 1.76 Q 169.063 1.056 170.85 0.65 A 17.981 17.981 0 0 1 171.266 0.561 Q 173.294 0.15 175.65 0.15 A 24.368 24.368 0 0 1 176.042 0.153 Q 179.645 0.211 182.534 1.34 A 15.107 15.107 0 0 1 183.1 1.575 Q 186.35 3 188.525 5.575 Q 190.655 8.097 191.778 11.579 A 21.476 21.476 0 0 1 191.825 11.725 Q 192.95 15.3 192.95 19.6 L 192.95 52.25 L 180.6 52.25 L 180.6 19.6 Q 180.6 14.9 178.425 12.325 A 6.722 6.722 0 0 0 178.072 11.938 Q 175.98 9.821 172.158 9.752 A 14.373 14.373 0 0 0 171.9 9.75 A 13.926 13.926 0 0 0 171.402 9.759 Q 168.481 9.863 165.9 11.2 A 18.766 18.766 0 0 0 165.378 11.481 Q 163.033 12.791 160.903 14.852 A 25.838 25.838 0 0 0 160.6 15.15 L 160.6 52.25 Z M 37.75 6.5 L 34.95 10.95 A 5.774 5.774 0 0 1 34.872 11.072 Q 34.407 11.775 33.9 12.075 A 1.96 1.96 0 0 1 33.725 12.166 Q 33.237 12.392 32.546 12.4 A 4.381 4.381 0 0 1 32.5 12.4 A 3.332 3.332 0 0 1 32.273 12.392 Q 31.472 12.338 30.575 11.9 Q 29.55 11.4 28.2 10.775 Q 26.85 10.15 25.125 9.65 A 10.102 10.102 0 0 0 24.907 9.589 Q 23.289 9.16 21.146 9.15 A 21.934 21.934 0 0 0 21.05 9.15 A 16.852 16.852 0 0 0 20.823 9.152 Q 17.334 9.198 15.3 10.7 Q 13.208 12.244 13.2 14.732 A 5.906 5.906 0 0 0 13.2 14.75 Q 13.2 16.4 14.275 17.525 A 7.142 7.142 0 0 0 14.483 17.734 Q 15.489 18.704 17.041 19.46 A 13.951 13.951 0 0 0 17.125 19.5 A 21.701 21.701 0 0 0 17.349 19.606 Q 18.928 20.34 20.872 20.94 A 35.707 35.707 0 0 0 21.15 21.025 A 122.558 122.558 0 0 1 21.714 21.196 Q 23.694 21.8 25.75 22.5 A 50.039 50.039 0 0 1 27.498 23.132 A 49.699 49.699 0 0 1 30.35 24.325 A 17.285 17.285 0 0 1 30.871 24.573 Q 32.808 25.535 34.375 26.925 Q 35.966 28.337 36.995 30.251 A 13.07 13.07 0 0 1 37.225 30.7 Q 38.255 32.808 38.298 35.742 A 17.555 17.555 0 0 1 38.3 36 A 19.993 19.993 0 0 1 38.295 36.46 Q 38.232 39.184 37.423 41.591 A 15.833 15.833 0 0 1 36.95 42.825 A 15.44 15.44 0 0 1 36.686 43.403 Q 35.356 46.163 33 48.225 Q 30.524 50.392 26.936 51.652 A 23.975 23.975 0 0 1 26.575 51.775 A 21.098 21.098 0 0 1 26.093 51.929 Q 22.441 53.05 17.8 53.05 A 29.314 29.314 0 0 1 17.139 53.043 Q 15.332 53.002 13.583 52.738 A 27.068 27.068 0 0 1 12.625 52.575 Q 10.1 52.1 7.775 51.25 Q 5.54 50.433 3.628 49.338 A 24.092 24.092 0 0 1 3.475 49.25 A 25.044 25.044 0 0 1 3.23 49.105 Q 1.47 48.054 0.099 46.838 A 17.556 17.556 0 0 1 0 46.75 L 2.85 42.05 Q 3.4 41.2 4.15 40.75 Q 4.863 40.322 5.938 40.301 A 5.73 5.73 0 0 1 6.05 40.3 A 3.975 3.975 0 0 1 6.433 40.318 Q 7.372 40.409 8.225 40.95 A 33.733 33.733 0 0 0 8.354 41.032 Q 9.264 41.603 10.421 42.25 A 66.316 66.316 0 0 0 10.6 42.35 A 15.33 15.33 0 0 0 10.771 42.443 Q 11.976 43.093 13.543 43.666 A 29.003 29.003 0 0 0 13.775 43.75 A 8.258 8.258 0 0 0 14 43.826 Q 15.695 44.376 18.179 44.399 A 23.628 23.628 0 0 0 18.4 44.4 A 17.953 17.953 0 0 0 18.673 44.398 Q 20.545 44.37 21.949 43.947 A 8.144 8.144 0 0 0 22.175 43.875 A 11.099 11.099 0 0 0 22.418 43.791 Q 23.736 43.317 24.647 42.603 A 5.988 5.988 0 0 0 24.775 42.5 A 6.142 6.142 0 0 0 24.962 42.338 Q 25.701 41.674 26.123 40.851 A 4.837 4.837 0 0 0 26.275 40.525 A 6.259 6.259 0 0 0 26.412 40.172 Q 26.7 39.353 26.743 38.495 A 6 6 0 0 0 26.75 38.2 Q 26.75 36.4 25.675 35.25 Q 24.6 34.1 22.825 33.25 A 21.097 21.097 0 0 0 22.601 33.144 Q 20.908 32.358 18.775 31.725 A 124.509 124.509 0 0 1 18.205 31.554 Q 16.302 30.98 14.329 30.319 A 144.706 144.706 0 0 1 14.125 30.25 A 42.937 42.937 0 0 1 10.907 29.02 A 43.265 43.265 0 0 1 9.475 28.375 A 17.024 17.024 0 0 1 8.949 28.115 Q 6.992 27.107 5.425 25.65 Q 3.784 24.124 2.741 21.957 A 14.386 14.386 0 0 1 2.575 21.6 A 10.125 10.125 0 0 1 2.445 21.296 Q 1.5 18.988 1.5 15.8 A 15.674 15.674 0 0 1 1.511 15.212 Q 1.606 12.669 2.532 10.325 A 15.166 15.166 0 0 1 2.75 9.8 A 14.022 14.022 0 0 1 3.081 9.099 Q 4.303 6.684 6.425 4.825 Q 8.75 2.787 12.179 1.531 A 24.277 24.277 0 0 1 12.475 1.425 A 19.037 19.037 0 0 1 12.933 1.271 Q 16.397 0.15 20.85 0.15 A 31.703 31.703 0 0 1 21.345 0.154 Q 26.08 0.228 30.044 1.722 A 22.318 22.318 0 0 1 30.5 1.9 A 27.764 27.764 0 0 1 30.905 2.066 Q 34.986 3.784 37.75 6.5 Z M 136.1 19.85 L 136.1 52.25 L 130.55 52.25 A 11.234 11.234 0 0 1 130.347 52.248 Q 128.868 52.222 127.952 51.8 A 3.271 3.271 0 0 1 127.8 51.725 Q 126.8 51.2 126.3 49.6 L 125.2 45.95 Q 123.379 47.584 121.624 48.847 A 35.163 35.163 0 0 1 121.375 49.025 A 24.861 24.861 0 0 1 120.904 49.35 Q 119.25 50.463 117.5 51.25 A 18.874 18.874 0 0 1 116.741 51.572 Q 115.078 52.234 113.25 52.6 A 19.847 19.847 0 0 1 112.967 52.654 Q 110.828 53.05 108.25 53.05 A 23.799 23.799 0 0 1 107.846 53.047 Q 104.958 52.998 102.473 52.244 A 16.98 16.98 0 0 1 102.25 52.175 Q 99.5 51.3 97.525 49.55 A 11.376 11.376 0 0 1 96.167 48.118 Q 95.138 46.825 94.45 45.2 A 12.04 12.04 0 0 1 94.285 44.789 Q 93.35 42.33 93.35 39.15 A 11.013 11.013 0 0 1 93.464 37.57 Q 93.758 35.538 94.812 33.543 A 14.866 14.866 0 0 1 94.875 33.425 Q 96.345 30.703 99.695 28.491 A 22.446 22.446 0 0 1 99.95 28.325 A 18.84 18.84 0 0 1 100.174 28.184 Q 103.584 26.065 109.076 24.633 A 54.925 54.925 0 0 1 109.4 24.55 A 38.489 38.489 0 0 1 109.772 24.458 Q 115.434 23.078 123.644 22.86 A 111.004 111.004 0 0 1 124.05 22.85 L 124.05 19.85 A 23.801 23.801 0 0 0 124.048 19.531 Q 123.982 14.623 121.875 12.225 A 6.845 6.845 0 0 0 121.524 11.855 Q 119.388 9.761 115.591 9.75 A 13.877 13.877 0 0 0 115.55 9.75 A 25.119 25.119 0 0 0 115.271 9.752 Q 112.456 9.783 110.55 10.45 A 26.011 26.011 0 0 0 110.302 10.538 Q 108.508 11.186 107.151 11.98 A 14.171 14.171 0 0 0 107.075 12.025 Q 105.6 12.9 104.35 13.6 Q 103.1 14.3 101.6 14.3 A 4.64 4.64 0 0 1 101.388 14.295 Q 100.273 14.244 99.45 13.65 Q 98.675 13.09 98.159 12.307 A 5.241 5.241 0 0 1 98 12.05 L 95.75 8.1 Q 104.404 0.18 116.548 0.004 A 38.209 38.209 0 0 1 117.1 0 Q 121.454 0 124.896 1.381 A 16.884 16.884 0 0 1 125.125 1.475 A 19.528 19.528 0 0 1 125.561 1.664 Q 127.691 2.617 129.413 4.006 A 16.325 16.325 0 0 1 131.1 5.575 Q 133.39 8.028 134.653 11.377 A 20.359 20.359 0 0 1 134.825 11.85 A 21.034 21.034 0 0 1 135.053 12.541 Q 136.1 15.908 136.1 19.85 Z M 87.5 7.3 L 84.25 11.8 A 9.191 9.191 0 0 1 84.147 11.929 Q 83.651 12.538 83.175 12.9 A 1.502 1.502 0 0 1 83.036 12.994 Q 82.562 13.278 81.774 13.298 A 4.78 4.78 0 0 1 81.65 13.3 A 3.119 3.119 0 0 1 80.93 13.216 Q 80.355 13.08 79.8 12.725 A 38.008 38.008 0 0 0 79.686 12.653 Q 78.88 12.141 77.806 11.515 A 88.938 88.938 0 0 0 77.65 11.425 A 11.595 11.595 0 0 0 77.492 11.335 Q 76.372 10.709 74.888 10.197 A 22.141 22.141 0 0 0 74.675 10.125 A 8.46 8.46 0 0 0 74.456 10.055 Q 72.872 9.575 70.631 9.551 A 22.12 22.12 0 0 0 70.4 9.55 A 17.621 17.621 0 0 0 70.047 9.554 Q 67.2 9.611 64.983 10.594 A 10.581 10.581 0 0 0 64.7 10.725 Q 62.281 11.885 60.667 14.044 A 11.739 11.739 0 0 0 60.625 14.1 A 12.503 12.503 0 0 0 60.328 14.521 Q 58.925 16.593 58.2 19.425 Q 57.437 22.405 57.402 26.135 A 38.446 38.446 0 0 0 57.4 26.5 Q 57.4 30.517 58.24 33.67 A 20.465 20.465 0 0 0 58.275 33.8 A 21.183 21.183 0 0 0 58.38 34.171 Q 59.212 37.01 60.678 39.011 A 12.137 12.137 0 0 0 60.8 39.175 A 12.288 12.288 0 0 0 61.062 39.508 Q 62.462 41.228 64.335 42.238 A 10.766 10.766 0 0 0 64.8 42.475 Q 67.099 43.576 69.973 43.599 A 15.367 15.367 0 0 0 70.1 43.6 Q 72.88 43.6 74.661 42.956 A 7.33 7.33 0 0 0 74.875 42.875 Q 76.7 42.15 77.95 41.275 Q 79.2 40.4 80.125 39.675 A 3.766 3.766 0 0 1 80.315 39.535 Q 81.159 38.955 82.182 38.95 A 3.634 3.634 0 0 1 82.2 38.95 Q 83.685 38.95 84.435 40.077 A 2.987 2.987 0 0 1 84.45 40.1 L 88 44.6 A 25.618 25.618 0 0 1 87.742 44.897 Q 85.8 47.102 83.55 48.625 A 26.082 26.082 0 0 1 83.023 48.973 Q 80.868 50.357 78.575 51.225 A 25.145 25.145 0 0 1 75.293 52.218 Q 74.725 52.348 74.15 52.453 A 25.799 25.799 0 0 1 73.25 52.6 Q 70.836 52.951 68.46 52.994 A 36.579 36.579 0 0 1 67.8 53 Q 63.319 53 59.328 51.42 A 22.415 22.415 0 0 1 58.85 51.225 A 21.495 21.495 0 0 1 58.104 50.893 Q 54.468 49.191 51.677 46.214 A 22.472 22.472 0 0 1 51.525 46.05 A 21.617 21.617 0 0 1 50.95 45.399 Q 48.351 42.332 46.726 38.123 A 31.189 31.189 0 0 1 46.575 37.725 Q 44.75 32.8 44.75 26.5 A 38.824 38.824 0 0 1 44.755 25.884 Q 44.839 20.586 46.375 16.025 A 27.507 27.507 0 0 1 46.577 15.445 Q 47.907 11.77 50.151 8.875 A 22.304 22.304 0 0 1 51.15 7.675 A 20.836 20.836 0 0 1 53.265 5.621 Q 55.681 3.586 58.765 2.23 A 25.589 25.589 0 0 1 58.95 2.15 A 21.643 21.643 0 0 1 59.537 1.908 Q 63.818 0.214 69.242 0.152 A 36.176 36.176 0 0 1 69.65 0.15 Q 75.078 0.15 79.236 1.798 A 19.781 19.781 0 0 1 79.725 2 A 24.221 24.221 0 0 1 80.924 2.552 Q 84.353 4.245 87.2 7.004 A 27.024 27.024 0 0 1 87.5 7.3 Z M 124.05 39 L 124.05 30.35 Q 118.719 30.597 115.118 31.258 A 36.92 36.92 0 0 0 115.025 31.275 A 42.482 42.482 0 0 0 114.8 31.318 Q 111.456 31.959 109.354 32.928 A 12.785 12.785 0 0 0 109.2 33 A 13.347 13.347 0 0 0 108.997 33.099 Q 107.064 34.062 106.171 35.311 A 4.566 4.566 0 0 0 106.075 35.45 A 6.043 6.043 0 0 0 105.91 35.715 Q 105.15 37.005 105.15 38.5 A 10.685 10.685 0 0 0 105.152 38.701 Q 105.21 41.794 107.075 43.15 Q 109 44.55 112.1 44.55 Q 113.972 44.55 115.553 44.21 A 13.261 13.261 0 0 0 115.6 44.2 A 13.94 13.94 0 0 0 116.145 44.069 Q 117.237 43.784 118.244 43.33 A 12.894 12.894 0 0 0 118.625 43.15 Q 120.048 42.451 121.372 41.427 A 25.371 25.371 0 0 0 121.375 41.425 Q 122.66 40.431 123.968 39.085 A 31.052 31.052 0 0 0 124.05 39 Z"/>
      </g>
    </mask>
  </defs>
  <rect class="background" x="0" y="0" width="100%" height="100%" fill="transparent"/>
  <rect class="text" x="0" y="0" width="100%" height="100%" fill="black" mask="url(#remiscan-logo-mask)"/>
</svg>